<?xml version="1.0" standalone="no"?>
<!DOCTYPE svg PUBLIC "-//W3C//DTD SVG 20010904//EN"
 "http://www.w3.org/TR/2001/REC-SVG-20010904/DTD/svg10.dtd">
<svg version="1.0" xmlns="http://www.w3.org/2000/svg"
 width="180.000000pt" height="180.000000pt" viewBox="0 0 180.000000 180.000000"
 preserveAspectRatio="xMidYMid meet">

<g transform="translate(0.000000,180.000000) scale(0.100000,-0.100000)"
fill="#000000" stroke="none">
<path d="M1090 1710 c0 -5 5 -10 10 -10 6 0 10 5 10 10 0 6 -4 10 -10 10 -5 0
-10 -4 -10 -10z"/>
<path d="M985 1700 c-3 -5 -12 -7 -19 -4 -8 3 -27 -1 -44 -10 -33 -17 -105
-85 -108 -103 -1 -6 -7 -27 -13 -45 -5 -18 -9 -51 -9 -73 1 -22 -6 -55 -15
-74 -9 -19 -17 -47 -17 -62 0 -18 -10 -37 -27 -53 l-26 -25 26 -6 27 -7 -28
-29 c-15 -16 -33 -29 -39 -29 -7 0 -13 -4 -13 -10 0 -5 7 -7 16 -3 12 4 15 1
12 -13 -2 -13 -10 -18 -25 -16 -15 2 -25 -5 -34 -28 -8 -16 -20 -30 -26 -30
-7 0 -13 -7 -13 -15 0 -8 -5 -15 -10 -15 -6 0 1 -18 14 -39 14 -22 28 -51 32
-65 3 -15 13 -30 21 -35 11 -6 13 -13 5 -27 -5 -10 -7 -34 -4 -53 4 -29 2 -33
-12 -28 -10 4 -16 1 -16 -9 0 -9 5 -12 12 -8 8 5 8 3 2 -7 -9 -15 -10 -19 -13
-83 -1 -34 -3 -37 -17 -25 -13 11 -14 9 -9 -12 18 -75 21 -128 8 -171 -12 -42
-43 -85 -43 -60 0 6 4 12 10 14 9 3 21 78 12 78 -15 0 -31 -41 -32 -79 0 -49
-30 -106 -60 -116 -11 -4 -20 -12 -20 -18 -1 -7 -7 -25 -15 -42 l-14 -30 4 45
c2 25 6 68 10 95 l5 50 -14 -35 -14 -35 -1 38 c-1 24 -5 36 -12 32 -6 -4 -10
-19 -9 -33 4 -60 0 -84 -13 -79 -13 5 -47 -54 -47 -81 0 -7 -4 -12 -8 -12 -12
0 -11 33 1 48 13 16 17 53 5 46 -12 -7 -11 -4 18 93 14 49 28 117 30 153 7 94
14 130 25 130 6 0 9 -10 8 -22 -1 -13 1 -30 5 -39 4 -9 8 -33 9 -52 1 -19 5
-33 10 -30 4 2 7 -12 7 -32 0 -20 4 -34 9 -31 14 9 -26 199 -49 232 -18 25
-56 47 -72 42 -6 -2 5 -15 26 -27 34 -21 45 -50 16 -43 -9 2 -11 -7 -6 -36 8
-53 -7 -130 -29 -146 -10 -7 -29 -12 -41 -10 -16 1 -24 -3 -24 -13 0 -13 -3
-13 -15 -3 -8 7 -15 21 -15 31 0 11 -4 19 -10 19 -5 0 -6 -7 -3 -17 5 -11 3
-14 -6 -9 -7 5 -11 17 -8 27 3 11 -2 23 -11 29 -10 5 -12 10 -4 10 6 0 12 5
12 11 0 5 -4 7 -10 4 -5 -3 -10 1 -10 10 0 9 -4 13 -10 10 -5 -3 -10 -2 -10 4
0 5 6 12 13 15 6 4 2 4 -10 2 -16 -3 -20 0 -16 12 4 10 2 13 -6 8 -9 -6 -10
-1 -5 18 4 16 2 26 -5 26 -6 0 -8 7 -5 15 4 8 1 22 -6 30 -6 8 -9 19 -5 25 4
6 1 18 -7 27 -10 13 -10 17 0 20 13 5 17 43 4 43 -5 0 -9 15 -10 33 0 17 -4
57 -9 88 -6 41 -5 59 4 67 8 8 14 9 18 1 5 -7 13 -5 25 6 16 15 18 14 24 -12
11 -48 28 -83 37 -77 5 3 6 -1 3 -9 -5 -15 40 -127 51 -127 4 0 5 73 2 161 -3
124 -1 168 9 188 8 14 14 34 14 44 0 9 6 17 13 17 7 0 13 10 14 21 l2 22 -15
-22 c-9 -12 -19 -19 -24 -16 -9 6 -32 -19 -28 -31 4 -12 -39 -84 -50 -84 -5 0
-14 -12 -21 -27 -11 -25 -14 -26 -22 -10 -11 18 0 64 27 115 18 36 18 56 -1
48 -24 -9 -17 18 11 45 19 18 36 23 67 23 23 -1 35 1 27 4 -8 3 -21 11 -28 19
-17 17 -29 17 -39 -1 -12 -19 -46 -35 -69 -31 -10 2 -22 4 -26 4 -5 1 -8 10
-8 22 0 13 4 18 12 13 6 -4 9 -3 6 2 -7 12 5 85 25 146 l15 47 -30 -4 c-36 -5
-50 -15 -20 -15 26 0 25 2 11 -38 -6 -18 -15 -29 -20 -26 -5 3 -6 -2 -3 -10 3
-8 -3 -44 -14 -78 -12 -35 -26 -90 -32 -123 -20 -105 -30 -135 -45 -135 -8 0
-15 5 -15 10 0 7 -6 7 -19 1 -10 -6 -21 -7 -25 -4 -3 3 -6 -49 -6 -117 0 -103
2 -121 14 -111 11 9 15 8 20 -4 3 -9 2 -13 -4 -10 -19 11 -32 -6 -18 -23 10
-12 10 -14 0 -8 -10 6 -12 -78 -11 -408 l1 -416 49 3 c30 1 49 7 49 14 0 7 12
1 26 -12 26 -24 33 -25 155 -25 113 0 128 2 132 18 4 16 5 16 6 0 1 -16 13
-18 110 -18 l110 0 -5 58 c-5 53 -4 56 11 37 8 -11 21 -37 27 -57 6 -21 15
-38 20 -38 12 0 10 13 -6 46 -8 16 -17 40 -21 54 l-7 25 24 -27 c12 -15 34
-43 48 -62 16 -23 33 -36 49 -36 14 0 21 5 19 12 -3 7 2 21 12 30 16 17 17 17
17 0 0 -9 -4 -23 -10 -29 -13 -17 7 -17 33 0 17 10 22 9 30 -3 6 -10 10 -11
10 -2 0 6 7 12 15 12 8 0 15 -4 15 -10 0 -5 10 -10 22 -10 19 0 20 2 6 18 -18
20 -28 52 -34 107 -4 37 -3 38 8 15 15 -33 15 -34 17 -72 2 -39 47 -81 62 -57
4 7 4 18 -2 25 -5 6 -18 37 -29 69 -11 32 -23 63 -28 69 -4 6 -9 25 -10 41 -4
39 -19 88 -48 150 -12 28 -26 63 -29 78 -4 15 -10 27 -14 27 -10 0 -33 108
-26 120 3 6 2 10 -3 10 -13 0 -32 73 -36 135 -2 28 -4 50 -6 50 -1 0 -3 10 -4
23 -5 42 39 20 72 -37 7 -13 11 -25 8 -28 -7 -7 20 -33 33 -33 6 0 11 14 11
30 0 29 1 30 23 18 25 -13 28 -14 74 -16 l32 -2 -20 -35 c-12 -19 -23 -35 -26
-35 -2 0 -2 4 2 9 3 5 1 12 -5 16 -5 3 -10 1 -10 -5 0 -6 -6 -18 -14 -25 -17
-17 -9 -65 11 -65 8 0 11 -5 7 -11 -4 -8 -1 -8 12 -2 17 8 40 9 54 3 24 -9 65
-9 77 2 12 10 14 25 9 75 l-7 63 36 0 c20 0 49 7 65 15 l29 15 -4 -95 c-2 -52
-7 -100 -11 -107 -8 -13 -17 -65 -18 -110 -1 -23 -5 -27 -21 -22 -15 4 -16 3
-6 -4 10 -7 12 -21 7 -51 -6 -39 -5 -41 13 -29 11 7 25 21 30 33 9 16 10 14 5
-15 -4 -19 -10 -37 -15 -38 -13 -5 -11 -22 6 -38 8 -9 15 -11 15 -5 0 6 4 11
9 11 6 0 1 -26 -10 -57 -22 -65 -14 -83 24 -58 18 11 23 22 19 38 -3 12 -1 18
4 14 17 -16 14 -54 -6 -72 -11 -10 -20 -22 -20 -26 0 -13 -112 -119 -126 -119
-3 0 -3 4 1 9 12 20 -13 20 -51 0 l-39 -20 73 2 c62 2 80 6 118 32 24 16 51
38 59 50 22 32 43 29 51 -6 4 -18 6 -42 5 -54 -2 -21 2 -23 51 -23 30 0 59 5
66 12 9 9 12 9 12 0 0 -21 18 -13 22 10 5 32 28 35 28 4 0 -25 2 -26 64 -26
l64 0 -5 40 c-5 36 -4 40 13 34 12 -3 10 0 -6 11 -14 9 -31 28 -37 41 -13 27
-11 28 17 14 11 -6 29 -14 40 -20 37 -18 29 8 -10 34 -26 17 -37 31 -34 41 4
8 1 15 -4 15 -6 0 -18 18 -28 40 -10 21 -21 37 -26 34 -4 -3 -8 0 -8 6 0 6 -5
8 -11 5 -6 -4 -13 2 -16 14 -3 11 -9 18 -14 15 -5 -3 -9 3 -9 13 0 11 -6 25
-12 32 -11 10 -10 11 3 6 14 -5 16 1 15 39 0 25 -4 46 -8 46 -5 0 -8 5 -8 11
0 5 5 7 10 4 6 -3 10 -1 10 4 0 6 -4 11 -10 11 -5 0 -7 7 -4 15 4 8 2 15 -4
15 -10 0 -32 -82 -32 -120 0 -11 -4 -20 -9 -20 -14 0 -17 48 -8 105 5 28 10
62 13 78 l4 27 -22 -20 c-27 -25 -30 -25 -47 3 -9 16 -10 19 -1 10 24 -22 48
3 60 63 6 30 9 62 6 70 -8 20 -27 17 -33 -5 -3 -11 -13 -21 -24 -24 -10 -3
-19 -11 -19 -17 0 -7 6 -10 14 -7 22 9 26 -38 5 -51 -15 -10 -19 -7 -28 21
-15 49 -31 168 -32 239 0 39 -3 56 -8 44 -7 -18 -8 -18 -14 -2 -4 10 -7 34 -7
54 0 28 -3 33 -10 22 -5 -8 -10 -31 -10 -51 0 -41 -28 -73 -54 -63 -12 5 -15
2 -10 -10 5 -12 -9 -23 -59 -45 -36 -16 -80 -29 -96 -29 -29 1 -40 11 -23 21
4 2 1 2 -6 0 -7 -1 -29 4 -48 12 -20 8 -34 10 -34 4 0 -6 -5 -7 -10 -4 -6 4
-8 10 -6 14 3 4 -11 13 -30 20 -18 7 -34 18 -34 26 0 7 -7 15 -15 18 -12 5
-12 10 0 34 8 15 15 36 15 46 0 9 7 17 16 17 9 0 25 11 36 25 11 14 23 23 28
20 5 -3 11 1 13 7 4 9 6 8 6 -2 1 -8 -7 -20 -18 -27 -18 -12 -34 -60 -21 -65
4 -2 0 -10 -9 -20 -15 -15 -16 -14 -16 10 -1 15 4 30 10 34 5 4 0 8 -12 8 -19
0 -21 -4 -18 -37 4 -32 3 -34 -4 -13 -9 24 -9 24 -10 -7 -1 -33 28 -61 49 -48
6 4 10 3 9 -2 -3 -20 2 -24 17 -12 13 10 17 10 24 -1 5 -8 7 -17 4 -21 -2 -4
3 -9 11 -13 16 -6 16 14 1 26 -5 3 -2 17 8 32 13 21 14 26 2 26 -8 0 -17 -6
-19 -12 -4 -8 -6 -9 -6 -2 -1 7 10 19 24 28 14 9 25 25 25 36 0 20 16 34 40
35 8 0 16 9 18 20 l4 20 -17 -20 c-16 -20 -16 -20 -10 2 3 12 1 24 -5 28 -12
7 -3 49 18 85 12 22 12 23 0 8 -14 -16 -15 -13 -16 35 0 28 -1 59 -2 67 -2 31
7 54 26 61 17 7 17 8 -4 8 -18 1 -21 5 -16 25 4 18 1 25 -15 29 -12 3 -21 12
-21 21 0 9 -6 16 -12 17 -7 0 -4 4 7 9 28 12 32 12 49 -5 11 -12 20 -13 34 -6
16 9 19 6 19 -22 0 -18 -4 -38 -10 -45 -5 -7 -7 -15 -4 -19 4 -3 9 2 13 11 5
14 9 13 30 -9 29 -31 29 -35 5 -35 -11 0 -26 -9 -34 -21 -11 -15 -16 -17 -20
-7 -3 7 -6 4 -6 -8 -1 -12 -4 -37 -8 -55 l-6 -34 33 38 c30 34 37 38 79 36 28
-2 51 -9 58 -18 10 -14 12 -12 10 8 -2 28 -38 69 -55 63 -7 -2 -12 4 -12 13 0
9 9 19 20 22 11 3 20 9 20 14 0 5 -6 6 -14 3 -17 -7 -26 7 -32 49 -9 68 -13
89 -19 95 -10 10 -36 11 -61 2 -17 -7 -28 -5 -39 6 -17 17 -20 40 -5 49 14 9
0 37 -16 31 -8 -3 -14 0 -14 7 0 7 -9 20 -21 30 -13 12 -18 24 -14 37 13 40
-21 82 -40 50z m-85 -205 c-7 -8 -20 -15 -29 -15 -11 0 -8 5 9 14 33 19 35 19
20 1z m4 -60 c-25 -19 -40 -19 -24 0 7 8 20 15 28 15 13 0 12 -3 -4 -15z m263
-52 c-3 -10 -5 -4 -5 12 0 17 2 24 5 18 2 -7 2 -21 0 -30z m-97 -78 c0 -8 -2
-15 -4 -15 -2 0 -6 7 -10 15 -3 8 -1 15 4 15 6 0 10 -7 10 -15z m-59 -24 c-8
-5 -10 -14 -6 -21 6 -9 4 -11 -4 -6 -7 5 -19 0 -27 -10 -14 -17 -14 -17 -3 6
13 26 27 40 44 40 6 0 4 -4 -4 -9z m39 5 c0 -2 -7 -9 -15 -16 -13 -11 -14 -10
-9 4 5 14 24 23 24 12z m160 -16 c0 -5 -5 -10 -11 -10 -5 0 -7 5 -4 10 3 6 8
10 11 10 2 0 4 -4 4 -10z m-137 -57 c-10 -3 -10 -9 0 -23 9 -15 9 -22 -1 -32
-6 -6 -12 -20 -12 -30 0 -10 -4 -18 -10 -18 -5 0 -10 11 -10 25 0 14 -4 25 -9
25 -5 0 -11 9 -14 20 -3 11 -1 20 4 20 5 0 9 -4 9 -10 0 -5 5 -10 10 -10 7 0
7 6 0 19 -15 29 -13 33 12 25 21 -6 22 -5 8 12 -14 19 -13 19 6 0 13 -13 15
-20 7 -23z m-133 -94 c0 -6 -4 -7 -10 -4 -5 3 -10 11 -10 16 0 6 5 7 10 4 6
-3 10 -11 10 -16z m-760 -19 c9 -16 8 -18 -5 -14 -8 4 -15 12 -15 20 0 20 7
17 20 -6z m510 7 c0 -7 -10 -13 -22 -14 -22 -2 -22 -1 -4 13 24 17 26 17 26 1z
m210 -11 c0 -2 -12 -11 -26 -21 -15 -9 -23 -12 -20 -6 4 6 1 12 -6 12 -7 1 1
5 17 9 17 4 31 8 33 9 1 0 2 -1 2 -3z m20 -20 c0 -3 -4 -8 -10 -11 -5 -3 -10
-1 -10 4 0 6 5 11 10 11 6 0 10 -2 10 -4z m142 -28 c1 -15 -1 -27 -6 -27 -5 1
-12 -5 -16 -11 -4 -7 -13 -9 -20 -5 -10 6 -10 10 2 19 8 6 18 22 22 34 9 28
13 26 18 -10z m-326 -25 c-7 -7 -26 7 -26 19 0 6 6 6 15 -2 9 -7 13 -15 11
-17z m77 0 c3 -5 0 -17 -4 -28 -8 -18 -9 -18 -5 3 3 17 1 22 -9 18 -8 -3 -17
-1 -20 4 -4 6 3 10 14 10 11 0 22 -3 24 -7z m193 -50 c-3 -4 -6 -1 -6 6 0 7
-4 9 -10 6 -6 -4 -7 1 -3 11 6 15 7 15 15 -1 6 -9 7 -19 4 -22z m-276 -8 c23
-19 37 -35 31 -35 -12 0 -91 69 -79 70 3 0 25 -16 48 -35z m90 -15 c8 -5 11
-12 7 -16 -4 -4 -15 0 -24 9 -18 18 -8 23 17 7z m47 -12 c-3 -8 -6 -5 -6 6 -1
11 2 17 5 13 3 -3 4 -12 1 -19z m126 -13 c-3 -9 -8 -14 -10 -11 -3 3 -2 9 2
15 9 16 15 13 8 -4z m-106 -70 c8 -9 13 -19 10 -22 -10 -10 -37 6 -37 22 0 19
7 19 27 0z m-173 -54 c-8 -9 -22 12 -17 26 6 15 7 14 13 -3 4 -10 6 -21 4 -23z
m221 19 c-3 -5 -11 -10 -16 -10 -6 0 -7 5 -4 10 3 6 11 10 16 10 6 0 7 -4 4
-10z m-35 -20 c0 -5 -5 -10 -11 -10 -5 0 -7 5 -4 10 3 6 8 10 11 10 2 0 4 -4
4 -10z m413 -20 c-3 -12 -8 -19 -11 -16 -5 6 5 36 12 36 2 0 2 -9 -1 -20z
m-205 -10 c14 0 15 -2 2 -9 -18 -12 -30 -5 -29 17 0 11 3 12 6 5 2 -7 12 -13
21 -13z m108 5 c-11 -8 -25 -15 -30 -15 -6 0 -2 7 8 15 11 8 25 15 30 15 6 0
2 -7 -8 -15z m-336 -25 c0 -11 -2 -20 -4 -20 -2 0 -6 9 -9 20 -3 11 -1 20 4
20 5 0 9 -9 9 -20z m-167 -10 c-3 -12 -8 -19 -11 -16 -5 6 5 36 12 36 2 0 2
-9 -1 -20z m583 -59 c-1 -31 -16 -33 -16 -2 0 15 8 31 15 31 1 0 2 -13 1 -29z
m-1200 -36 c6 -36 6 -39 -9 -26 -10 8 -17 28 -17 49 0 46 16 31 26 -23z m1000
9 c-4 -9 -9 -15 -11 -12 -3 3 -3 13 1 22 4 9 9 15 11 12 3 -3 3 -13 -1 -22z
m199 -67 c1 -18 4 -37 8 -43 3 -6 -1 -21 -10 -34 -14 -20 -17 -20 -25 -6 -5
10 -5 24 2 36 6 12 10 28 9 38 -3 32 1 55 8 48 4 -4 8 -22 8 -39z m145 19 c0
-3 -4 -8 -10 -11 -5 -3 -10 -1 -10 4 0 6 5 11 10 11 6 0 10 -2 10 -4z m-1340
-16 c0 -5 -2 -10 -4 -10 -3 0 -8 5 -11 10 -3 6 -1 10 4 10 6 0 11 -4 11 -10z
m1246 -77 c-10 -10 -19 5 -10 18 6 11 8 11 12 0 2 -7 1 -15 -2 -18z m4 -28 c0
-12 -29 -3 -34 10 -4 13 -2 14 14 5 11 -6 20 -13 20 -15z m-73 -37 c-3 -7 -5
-2 -5 12 0 14 2 19 5 13 2 -7 2 -19 0 -25z m143 17 c0 -8 -7 -15 -15 -15 -13
0 -14 3 -3 15 16 18 18 18 18 0z m-590 -24 c0 -4 -7 -8 -15 -8 -16 0 -20 9 -9
20 8 8 24 -1 24 -12z m-58 -46 c6 -29 -7 -34 -15 -6 -4 17 0 31 9 31 1 0 4
-11 6 -25z m53 9 c13 -5 14 -8 3 -15 -20 -13 -38 -11 -38 6 0 16 9 19 35 9z
m-98 -81 c-3 -10 -5 -4 -5 12 0 17 2 24 5 18 2 -7 2 -21 0 -30z m53 21 c0 -8
-4 -12 -10 -9 -5 3 -10 10 -10 16 0 5 5 9 10 9 6 0 10 -7 10 -16z m-333 -56
c-3 -7 -5 -2 -5 12 0 14 2 19 5 13 2 -7 2 -19 0 -25z m928 2 c3 -5 1 -10 -4
-10 -6 0 -11 5 -11 10 0 6 2 10 4 10 3 0 8 -4 11 -10z m-1192 -20 c3 -11 1
-18 -4 -14 -5 3 -9 12 -9 20 0 20 7 17 13 -6z m726 -70 l-1 -35 -13 30 c-8 17
-14 44 -14 60 l0 30 14 -25 c8 -14 14 -41 14 -60z m586 70 c3 -5 2 -10 -4 -10
-5 0 -13 5 -16 10 -3 6 -2 10 4 10 5 0 13 -4 16 -10z m-670 -36 c12 -26 14
-38 5 -49 -8 -10 -7 -16 7 -24 10 -6 15 -11 10 -11 -4 0 -16 5 -26 12 -16 10
-17 14 -5 22 12 10 12 15 -1 40 -15 27 -19 46 -11 46 2 0 11 -16 21 -36z m580
26 c3 -5 2 -10 -4 -10 -5 0 -13 5 -16 10 -3 6 -2 10 4 10 5 0 13 -4 16 -10z
m34 -26 c2 34 15 7 18 -35 2 -22 -2 -39 -8 -39 -6 0 -8 9 -4 23 7 22 7 22 -9
2 -15 -19 -15 -18 -15 25 0 34 2 40 9 25 8 -19 9 -19 9 -1z m56 -5 c-4 -5 -1
-9 4 -9 6 0 11 5 11 12 0 6 3 9 6 6 3 -3 -1 -16 -8 -27 -11 -18 -11 -23 2 -31
11 -7 16 -5 18 8 6 28 17 33 18 7 1 -13 -5 -26 -13 -29 -11 -5 -12 -10 -4 -19
8 -10 7 -19 -4 -33 -13 -16 -16 -17 -24 -4 -7 9 -7 18 -1 24 14 14 12 36 -3
36 -8 0 -13 15 -13 40 -1 22 3 37 7 34 5 -3 7 -10 4 -15z m-720 1 c3 -5 1 -10
-4 -10 -6 0 -11 5 -11 10 0 6 2 10 4 10 3 0 8 -4 11 -10z m-575 -20 c9 -16 8
-20 -5 -20 -8 0 -15 9 -15 20 0 11 2 20 5 20 2 0 9 -9 15 -20z m-160 6 c0 -3
-4 -8 -10 -11 -5 -3 -10 -1 -10 4 0 6 5 11 10 11 6 0 10 -2 10 -4z m831 -53
c13 -16 12 -17 -3 -4 -10 7 -18 15 -18 17 0 8 8 3 21 -13z m-61 -13 c0 -5 -2
-10 -4 -10 -3 0 -8 5 -11 10 -3 6 -1 10 4 10 6 0 11 -4 11 -10z m-580 -10 c0
-5 -4 -10 -10 -10 -5 0 -7 -8 -4 -17 5 -15 3 -15 -10 1 -21 26 -20 36 4 36 11
0 20 -4 20 -10z m80 0 c0 -5 -5 -10 -11 -10 -5 0 -7 5 -4 10 3 6 8 10 11 10 2
0 4 -4 4 -10z m-42 -45 c-3 -3 -9 2 -12 12 -6 14 -5 15 5 6 7 -7 10 -15 7 -18z
m120 5 c3 -11 2 -12 -8 -3 -8 7 -22 8 -43 2 -46 -13 -57 -10 -22 7 37 17 67
14 73 -6z m1080 -5 c-3 -13 0 -26 6 -28 6 -2 -4 -6 -21 -9 -29 -4 -33 -2 -33
17 0 13 9 26 23 33 30 15 30 15 25 -13z m-1396 -10 c3 -13 1 -22 -3 -19 -9 5
-13 44 -5 44 2 0 6 -11 8 -25z m302 -1 c3 -8 2 -12 -4 -9 -6 3 -10 10 -10 16
0 14 7 11 14 -7z m372 -20 c-4 -9 -9 -15 -11 -12 -3 3 -3 13 1 22 4 9 9 15 11
12 3 -3 3 -13 -1 -22z m794 11 c0 -8 -9 -15 -20 -15 -11 0 -20 5 -20 11 0 6 7
9 15 5 8 -3 15 -1 15 4 0 6 2 10 5 10 3 0 5 -7 5 -15z m100 5 c0 -5 -2 -10 -4
-10 -3 0 -8 5 -11 10 -3 6 -1 10 4 10 6 0 11 -4 11 -10z m-182 -42 c-2 -6 -10
-14 -16 -16 -7 -2 -10 2 -6 12 7 18 28 22 22 4z"/>
<path d="M1275 520 c3 -5 8 -10 11 -10 2 0 4 5 4 10 0 6 -5 10 -11 10 -5 0 -7
-4 -4 -10z"/>
<path d="M261 1678 c3 -26 -1 -39 -11 -33 -5 3 -10 1 -10 -5 0 -7 7 -9 16 -6
9 3 20 6 25 6 6 0 8 4 4 9 -3 5 -1 12 5 16 17 11 11 25 -10 25 -12 0 -20 -6
-19 -12z"/>
<path d="M175 1669 c-4 -6 -5 -12 -2 -15 2 -3 7 2 10 11 7 17 1 20 -8 4z"/>
<path d="M815 1630 c-3 -6 1 -7 9 -4 18 7 21 14 7 14 -6 0 -13 -4 -16 -10z"/>
<path d="M315 1600 c-3 -5 -1 -10 4 -10 6 0 11 5 11 10 0 6 -2 10 -4 10 -3 0
-8 -4 -11 -10z"/>
<path d="M1277 1586 c-3 -8 -1 -16 4 -18 6 -2 13 -25 16 -52 4 -44 3 -48 -14
-41 -58 24 -61 20 -41 -46 l11 -39 19 22 c24 28 32 18 19 -27 -10 -38 3 -84
29 -100 6 -3 7 -17 4 -30 -4 -16 0 -26 12 -33 13 -7 15 -17 10 -45 -4 -20 -11
-37 -17 -39 -6 -2 -4 -11 4 -23 14 -18 16 -17 35 22 15 32 17 43 7 47 -7 2
-16 18 -20 35 -4 17 -11 31 -16 31 -6 0 -8 4 -4 9 12 21 12 73 -1 78 -10 3
-12 18 -9 50 2 24 7 48 10 52 3 5 -2 27 -10 50 -8 23 -12 41 -9 41 2 0 -3 11
-12 25 -8 13 -13 29 -9 35 3 5 2 10 -3 10 -6 0 -12 -6 -15 -14z"/>
<path d="M280 1555 c0 -8 -8 -16 -17 -16 -10 -1 -4 -5 12 -9 l30 -8 -32 -1
c-18 0 -33 -5 -33 -9 0 -5 20 -8 44 -8 l45 1 -21 22 c-11 12 -17 26 -13 32 3
6 1 11 -4 11 -6 0 -11 -7 -11 -15z"/>
<path d="M1264 1539 c-3 -6 -1 -16 5 -22 8 -8 11 -5 11 11 0 24 -5 28 -16 11z"/>
<path d="M150 1500 c0 -5 4 -10 9 -10 6 0 13 5 16 10 3 6 -1 10 -9 10 -9 0
-16 -4 -16 -10z"/>
<path d="M86 1343 c-6 -14 -5 -15 5 -6 7 7 10 15 7 18 -3 3 -9 -2 -12 -12z"/>
<path d="M185 1330 c-3 -5 -1 -10 4 -10 6 0 11 5 11 10 0 6 -2 10 -4 10 -3 0
-8 -4 -11 -10z"/>
<path d="M280 1291 c0 -8 -8 -20 -17 -27 -16 -12 -16 -13 -2 -14 24 0 40 23
29 40 -8 12 -10 12 -10 1z"/>
<path d="M10 1177 c0 -8 7 -17 15 -21 8 -3 15 -3 15 0 0 3 -7 12 -15 20 -13
13 -15 13 -15 1z"/>
<path d="M321 1134 c0 -11 3 -14 6 -6 3 7 2 16 -1 19 -3 4 -6 -2 -5 -13z"/>
<path d="M1094 1096 c-3 -8 -1 -22 4 -32 7 -13 9 -10 8 15 -1 34 -4 38 -12 17z"/>
<path d="M1133 1017 c0 -32 4 -60 9 -63 4 -3 5 2 2 11 -4 8 1 26 10 40 13 20
13 23 2 19 -10 -4 -16 3 -19 23 -2 15 -4 2 -4 -30z"/>
<path d="M322 1010 c0 -30 4 -66 8 -80 6 -19 8 -12 8 30 0 30 -4 66 -8 80 -6
19 -8 12 -8 -30z"/>
<path d="M1186 1010 c2 -33 10 -59 18 -65 8 -6 17 -24 19 -40 3 -19 5 -15 3
13 -1 32 2 41 12 37 7 -2 10 0 7 5 -3 6 -13 10 -21 10 -8 0 -14 8 -14 18 -1 9
-7 31 -14 47 -13 29 -13 28 -10 -25z"/>
<path d="M469 1001 c-30 -21 -64 -57 -77 -80 l-23 -41 28 0 c44 0 73 11 73 27
0 8 11 24 25 35 20 15 23 23 15 33 -9 11 -7 12 10 8 16 -4 23 0 27 16 3 11 13
21 22 21 13 0 14 2 1 9 -18 12 -30 5 -30 -20 0 -19 -11 -25 -23 -12 -4 3 -2
12 5 20 23 29 -1 21 -53 -16z"/>
<path d="M1156 981 c-3 -5 1 -14 8 -20 12 -10 13 -8 9 8 -6 23 -9 25 -17 12z"/>
<path d="M1050 899 c-26 -21 -30 -29 -17 -29 9 0 17 -5 17 -11 0 -5 5 -7 10
-4 6 3 10 1 10 -6 0 -7 3 -10 6 -7 3 4 1 16 -6 27 -6 12 -7 21 -1 21 8 0 24
30 19 36 -2 1 -19 -11 -38 -27z"/>
<path d="M630 868 c0 -9 5 -20 10 -23 13 -8 13 5 0 25 -8 13 -10 13 -10 -2z"/>
<path d="M330 859 c0 -5 5 -7 10 -4 6 3 10 8 10 11 0 2 -4 4 -10 4 -5 0 -10
-5 -10 -11z"/>
<path d="M385 710 c3 -5 11 -10 16 -10 6 0 7 5 4 10 -3 6 -11 10 -16 10 -6 0
-7 -4 -4 -10z"/>
<path d="M1207 657 c-3 -8 -1 -20 4 -28 6 -10 9 -7 9 14 0 29 -5 35 -13 14z"/>
<path d="M442 580 c0 -14 2 -19 5 -12 2 6 2 18 0 25 -3 6 -5 1 -5 -13z"/>
<path d="M572 540 c0 -19 2 -27 5 -17 2 9 2 25 0 35 -3 9 -5 1 -5 -18z"/>
<path d="M595 560 c-8 -13 4 -32 16 -25 12 8 12 35 0 35 -6 0 -13 -4 -16 -10z"/>
<path d="M1506 545 c-3 -8 -1 -15 4 -15 6 0 10 7 10 15 0 8 -2 15 -4 15 -2 0
-6 -7 -10 -15z"/>
<path d="M430 540 c0 -5 5 -10 10 -10 6 0 10 5 10 10 0 6 -4 10 -10 10 -5 0
-10 -4 -10 -10z"/>
<path d="M535 479 c-4 -12 -2 -26 4 -32 8 -8 11 -2 11 21 0 37 -6 41 -15 11z"/>
</g>
</svg>
